#!OML:ASF Y:\EmotionMaleHayes\Project 1\Capture day 1\Session 1\Male1.ASF
:FULLY-SPECIFIED
:DEGREES
1
root -28.2237 17.1277 0.662297 43.7436 85.9972 43.5097
lowerback 3.59607 1.12445 -4.86276
upperback 0.158704 1.30093 -0.447792
thorax -1.95161 0.695052 2.19598
lowerneck -22.002 2.93143 4.98237
upperneck 18.2159 2.80549 -1.57532
head 9.47067 1.48757 -0.955285
rclavicle -1.32782e-015 -8.07563e-015
rhumerus 0 0 0
rradius 0
rwrist 0
rhand 0 0
rfingers 0
rthumb 0 0
lclavicle -1.32782e-015 -8.07563e-015
lhumerus 0 0 0
lradius 0
lwrist 0
lhand 0 0
lfingers 0
lthumb 0 0
rfemur 10.9156 -6.5803 10.153
rtibia 1.06982
rfoot -18.258 -12.3012
rtoes 12.6618
lfemur 12.477 -4.04041 -16.9518
ltibia -4.62991
lfoot -11.7887 17.6773
ltoes -5.89992
2
root -28.2303 17.1256 0.65909 45.3852 85.7926 45.1111
lowerback 3.67899 1.13753 -4.94679
upperback 0.103606 1.30685 -0.572256
thorax -2.0544 0.701899 2.11216
lowerneck -21.978 2.9265 4.96386
upperneck 18.2634 2.79068 -1.5021
head 9.4813 1.48892 -0.928984
rclavicle -2.48481e-015 -8.94531e-016
rhumerus 0 0 0
rradius 0
rwrist 0
rhand 0 0
rfingers 0
rthumb 0 0
lclavicle -2.48481e-015 -8.94531e-016
lhumerus -32.4435 -7.97941 93.0252
lradius 25.3525
lwrist -14.2233
lhand -6.68054 -26.0475
lfingers 7.12502
lthumb 19.178 3.02697
rfemur 10.8501 -6.47525 9.88086
rtibia 1.02322
rfoot -18.2938 -12.378
rtoes 12.6731
lfemur 12.3822 -4.11096 -17.2602
ltibia -4.5509
lfoot -11.81 17.801
ltoes -4.91995
3
root -28.2288 17.1223 0.659086 43.2637 85.7083 42.8377
lowerback 3.46491 1.15103 -4.8573
upperback 0.0839238 1.34024 -0.56962
thorax -1.95499 0.715653 2.06684
lowerneck -21.9863 2.94705 4.93936
upperneck 18.3647 2.82739 -1.49654
head 9.51922 1.5061 -0.917403
rclavicle 1.70893e-014 -1.75427e-014
rhumerus 0 0 0
rradius 0
rwrist 0
rhand 0 0
rfingers 0
rthumb 0 0
lclavicle 1.70893e-014 -1.75427e-014
lhumerus -32.4307 -8.02081 93.0363
lradius 25.1295
lwrist -14.1014
lhand -5.53468 -25.9773
lfingers 7.12502
lthumb 20.2796 2.98395
rfemur 10.6663 -6.43173 9.98608
rtibia 0.987012
rfoot -18.2458 -12.2966
rtoes 13.0461
lfemur 12.2016 -3.581 -17.0184
ltibia -4.43657
lfoot -11.7128 17.4045
ltoes -5.33417
4
root -28.2275 17.1059 0.651301 57.6757 84.5353 57.5013
lowerback 3.64821 1.08177 -6.52831
upperback 0.168928 1.17298 -1.01752
thorax -1.98286 0.649374 2.54552
lowerneck -22.0514 2.95911 4.99473
upperneck 18.5485 2.85917 -1.6409
head 9.59968 1.50947 -0.971284
rclavicle -2.51276e-015 -1.38652e-014
rhumerus 0 0 0
rradius 0
rwrist 0
rhand 0 0
rfingers 0
rthumb 0 0
lclavicle -2.51276e-015 -1.38652e-014
lhumerus -32.5086 -8.04484 93.0948
lradius 24.7324
lwrist -15.1076
lhand -6.48537 -26.3701
lfingers 7.12502
lthumb 19.3657 2.68563
rfemur 10.9843 -7.28405 7.55934
rtibia 1.08005
rfoot -18.0551 -11.5156
rtoes 13.2485
lfemur 12.0828 -2.418 -18.8285
ltibia -3.95092
lfoot -11.3376 16.178
ltoes -6.2139
5
root -28.2245 17.1061 0.650562 54.8048 84.6688 54.6353
lowerback 3.95891 1.13332 -6.12092
upperback -0.114655 1.21973 -1.0076
thorax -2.44685 0.685877 2.31641
lowerneck -21.8808 2.92157 4.97589
upperneck 18.8514 2.82159 -1.593
head 9.67425 1.50228 -0.957905
rclavicle 7.5942e-016 -1.10325e-014
rhumerus 0 0 0
rradius 0
rwrist 0
rhand 0 0
rfingers 0
rthumb 0 0
lclavicle 7.5942e-016 -1.10325e-014
lhumerus -33.3791 -8.58244 93.4217
lradius 24.0481
lwrist -17.9753
lhand -11.3363 -27.2719
lfingers 7.12502
lthumb 14.6965 2.18724
rfemur 11.0972 -7.33139 7.83404
rtibia 0.860086
rfoot -17.8941 -11.3609
rtoes 13.2194
lfemur 12.1901 -2.36214 -18.5017
ltibia -4.06564
lfoot -11.4134 16.2517
ltoes -5.4952
6
root -28.2314 17.1093 0.653373 52.904 84.9311 52.7771
lowerback 4.04178 1.09494 -5.81658
upperback -0.0834922 1.1781 -0.92716
thorax -2.45277 0.660631 2.23117
lowerneck -21.8008 2.96724 4.98189
upperneck 18.8223 2.88512 -1.58294
head 9.65192 1.53366 -0.946759
rclavicle 1.31881e-014 -1.21259e-014
rhumerus 0 0 0
rradius 0
rwrist 0
rhand 0 0
rfingers 0
rthumb 0 0
lclavicle 1.31881e-014 -1.21259e-014
lhumerus -33.375 -8.52462 93.3928
lradius 23.9682
lwrist -17.6187
lhand -10.8692 -27.0119
lfingers 7.12502
lthumb 15.1465 2.41381
rfemur 11.3565 -7.48037 8.15081
rtibia 0.445444
rfoot -17.5516 -11.3188
rtoes 12.8299
lfemur 12.2177 -2.44742 -18.0963
ltibia -4.07342
lfoot -11.4996 16.2985
ltoes -4.69606
7
root -28.2322 17.1095 0.653842 51.2194 85.0122 51.0353
lowerback 3.96114 1.10918 -5.62689
upperback -0.0874244 1.21106 -0.918562
thorax -2.41025 0.673482 2.13337
lowerneck -21.7259 2.94036 5.01608
upperneck 18.8443 2.84132 -1.57749
head 9.64539 1.51763 -0.957481
rclavicle -9.16273e-016 -3.926e-015
rhumerus 0 0 0
rradius 0
rwrist 0
rhand 0 0
rfingers 0
rthumb 0 0
lclavicle -9.16273e-016 -3.926e-015
lhumerus -33.3718 -8.47819 93.3238
lradius 23.8145
lwrist -17.4943
lhand -10.686 -26.8757
lfingers 7.12502
lthumb 15.323 2.5366
rfemur 11.3729 -7.59568 8.30239
rtibia 0.260696
rfoot -17.3305 -11.171
rtoes 12.2743
lfemur 12.2611 -2.83374 -18.0348
ltibia -4.2343
lfoot -11.583 16.7415
ltoes -4.42666
8
root -28.2302 17.1104 0.649784 51.3418 84.89 51.0724
lowerback 3.87627 1.11389 -5.61981
upperback -0.139352 1.22051 -1.00109
thorax -2.41502 0.679031 2.04456
lowerneck -21.5261 2.90168 5.03419
upperneck 18.8153 2.79244 -1.56603
head 9.59801 1.49924 -0.96542
rclavicle -3.33275e-015 -2.68359e-015
rhumerus 0 0 0
rradius 0
rwrist 0
rhand 0 0
rfingers 0
rthumb 0 0
lclavicle -3.33275e-015 -2.68359e-015
lhumerus -33.4311 -8.46541 93.2461
lradius 23.6567
lwrist -17.3769
lhand -10.7249 -26.4917
lfingers 7.12502
lthumb 15.2855 2.92342
rfemur 11.1527 -7.68825 8.17207
rtibia 0.507731
rfoot -17.3707 -11.0465
rtoes 11.6294
lfemur 12.2573 -3.11248 -18.298
ltibia -4.36535
lfoot -11.4976 17.1215
ltoes -4.82289
9
root -28.2294 17.1128 0.64598 51.6554 84.7665 51.3399
lowerback 3.85242 1.09367 -5.67037
upperback -0.180117 1.19091 -1.03811
thorax -2.44179 0.666297 2.03637
lowerneck -21.3649 2.93232 5.0481
upperneck 18.7953 2.85573 -1.62959
head 9.56565 1.52329 -0.982189
rclavicle -1.80149e-016 -2.01269e-014
rhumerus 0 0 0
rradius 0
rwrist 0
rhand 0 0
rfingers 0
rthumb 0 0
lclavicle -1.80149e-016 -2.01269e-014
lhumerus -33.4877 -8.35018 93.224
lradius 23.5074
lwrist -17.1551
lhand -10.8647 -26.0101
lfingers 7.12502
lthumb 15.1508 3.4153
rfemur 10.9048 -7.53413 8.11468
rtibia 0.864578
rfoot -17.5919 -11.1507
rtoes 11.7441
lfemur 12.1299 -2.65608 -18.303
ltibia -4.22123
lfoot -11.3994 16.7547
ltoes -4.97365
10
root -28.2296 17.1136 0.644321 51.3344 84.7202 51.0065
lowerback 3.81324 1.07611 -5.67281
upperback -0.155183 1.17148 -1.0186
thorax -2.39292 0.655034 2.0601
lowerneck -21.407 2.97391 4.93983
upperneck 18.8509 2.93364 -1.57465
head 9.59273 1.55825 -0.93352
rclavicle -7.31621e-015 -5.76476e-015
rhumerus 0 0 0
rradius 0
rwrist 0
rhand 0 0
rfingers 0
rthumb 0 0
lclavicle -7.31621e-015 -5.76476e-015
lhumerus -33.4919 -8.34024 93.275
lradius 23.5028
lwrist -16.6673
lhand -11.456 -25.5696
lfingers 7.12502
lthumb 14.5812 3.89783
rfemur 10.8079 -7.29928 8.16837
rtibia 0.958491
rfoot -17.7307 -11.2653
rtoes 12.5151
lfemur 12.065 -2.34555 -18.2163
ltibia -4.12109
lfoot -11.5095 16.4863
ltoes -4.50897
11
root -28.2309 17.1139 0.643364 50.2824 84.7564 49.9143
lowerback 3.7334 1.05253 -5.56367
upperback -0.134178 1.15153 -0.975552
thorax -2.32338 0.641589 2.04648
lowerneck -21.4452 3.01744 4.86327
upperneck 18.9499 3.00752 -1.52795
head 9.63493 1.59329 -0.893305
rclavicle -9.39413e-015 1.44119e-014
rhumerus 0 0 0
rradius 0
rwrist 0
rhand 0 0
rfingers 0
rthumb 0 0
lclavicle -9.39413e-015 1.44119e-014
lhumerus -33.518 -8.3655 93.2788
lradius 23.6249
lwrist -15.9983
lhand -12.4186 -25.3482
lfingers 7.12502
lthumb 13.6535 4.18402
rfemur 10.829 -7.39957 8.2245
rtibia 0.80372
rfoot -17.5777 -11.1193
rtoes 12.7195
lfemur 12.0441 -2.42448 -18.132
ltibia -4.14119
lfoot -11.6029 16.5946
ltoes -4.47749
12
root -28.2324 17.1152 0.642597 49.4204 84.8122 48.9911
lowerback 3.64748 1.02072 -5.45923
upperback -0.14253 1.11927 -0.93672
thorax -2.27991 0.62324 2.03152
lowerneck -21.4431 3.08016 4.98361
upperneck 19.1175 3.09444 -1.67308
head 9.70144 1.62747 -0.95056
rclavicle -2.98177e-016 -1.54555e-014
rhumerus 0 0 0
rradius 0
rwrist 0
rhand 0 0
rfingers 0
rthumb 0 0
lclavicle -2.98177e-016 -1.54555e-014
lhumerus -33.5172 -8.13324 93.1074
lradius 23.4619
lwrist -16.0945
lhand -13.2066 -25.7015
lfingers 7.12502
lthumb 12.894 3.88015
rfemur 10.8439 -7.59944 8.28125
rtibia 0.672878
rfoot -17.4033 -10.953
rtoes 12.4636
lfemur 11.8855 -1.9638 -17.8622
ltibia -3.95853
lfoot -11.4297 16.2304
ltoes -5.62015
13
root -28.2333 17.1154 0.641094 49.3252 84.8035 48.8507
lowerback 3.59101 0.987504 -5.46987
upperback -0.152345 1.07823 -0.909858
thorax -2.25594 0.602503 2.0684
lowerneck -21.5185 3.11469 4.99285
upperneck 19.3572 3.14835 -1.70364
head 9.80262 1.6519 -0.953475
rclavicle -7.67961e-015 4.52235e-015
rhumerus 0 0 0
rradius 0
rwrist 0
rhand 0 0
rfingers 0
rthumb 0 0
lclavicle -7.67961e-015 4.52235e-015
lhumerus -33.4587 -7.84219 92.9566
lradius 23.3629
lwrist -16.2315
lhand -12.5923 -25.8154
lfingers 7.12502
lthumb 13.4862 3.72791
rfemur 10.8332 -7.63099 8.28149
rtibia 0.601146
rfoot -17.3551 -10.9068
rtoes 12.5481
lfemur 11.7441 -1.55587 -17.738
ltibia -3.78528
lfoot -11.232 15.9205
ltoes -6.64771
14
root -28.2342 17.1126 0.639112 48.9702 84.7447 48.4227
lowerback 3.53597 0.981165 -5.50266
upperback -0.182467 1.07113 -0.885154
thorax -2.25673 0.599877 2.11316
lowerneck -21.56 3.11335 4.90032
upperneck 19.5271 3.16135 -1.63059
head 9.86802 1.66155 -0.909872
rclavicle -4.81432e-017 4.5472e-015
rhumerus 0 0 0
rradius 0
rwrist 0
rhand 0 0
rfingers 0
rthumb 0 0
lclavicle -4.81432e-017 4.5472e-015
lhumerus -33.4316 -7.61574 92.8704
lradius 23.3055
lwrist -16.2501
lhand -12.0792 -26.0148
lfingers 7.12502
lthumb 13.9807 3.49508
rfemur 10.8207 -7.86244 8.15622
rtibia 0.474755
rfoot -17.1592 -10.6465
rtoes 12.32
lfemur 11.7591 -1.94591 -17.9217
ltibia -3.9214
lfoot -11.3501 16.3188
ltoes -6.15073
15
root -28.2365 17.1122 0.638247 48.0467 84.7603 47.4708
lowerback 3.5566 0.992729 -5.42765
upperback -0.212854 1.08699 -0.863916
thorax -2.2999 0.608336 2.09156
lowerneck -21.4133 3.09641 4.94393
upperneck 19.4646 3.14644 -1.69122
head 9.82069 1.65142 -0.942202
rclavicle -2.98954e-016 -5.61567e-015
rhumerus 0 0 0
rradius 0
rwrist 0
rhand 0 0
rfingers 0
rthumb 0 0
lclavicle -2.98954e-016 -5.61567e-015
lhumerus -33.4612 -7.5727 92.8039
lradius 23.296
lwrist -16.1453
lhand -12.9064 -26.0413
lfingers 7.12502
lthumb 13.1834 3.52189
rfemur 10.7603 -7.83695 8.25097
rtibia 0.495369
rfoot -17.153 -10.63
rtoes 12.3854
lfemur 11.8091 -2.30004 -17.9657
ltibia -4.04238
lfoot -11.592 16.6245
ltoes -5.48362
16
root -28.2398 17.1155 0.637802 47.4197 84.7696 46.8679
lowerback 3.62843 1.00644 -5.36825
upperback -0.233284 1.10199 -0.863118
thorax -2.36137 0.616801 2.05689
lowerneck -21.2183 3.09059 4.99503
upperneck 19.3607 3.14399 -1.74045
head 9.75042 1.64898 -0.970399
rclavicle -4.31114e-015 1.83876e-014
rhumerus 0 0 0
rradius 0
rwrist 0
rhand 0 0
rfingers 0
rthumb 0 0
lclavicle -4.31114e-015 1.83876e-014
lhumerus -33.5074 -7.555 92.7221
lradius 23.3442
lwrist -16.0237
lhand -12.0398 -26.0112
lfingers 7.12502
lthumb 14.0187 3.49607
rfemur 10.6203 -7.39045 8.48776
rtibia 0.703161
rfoot -17.4725 -10.9749
rtoes 13.1293
lfemur 11.8228 -2.31259 -17.9148
ltibia -4.04332
lfoot -11.6204 16.6715
ltoes -5.5687
17
root -28.2442 17.1167 0.638759 47.9733 84.5746 47.3659
lowerback 3.59583 1.03268 -5.58999
upperback -0.259863 1.12879 -0.883631
thorax -2.37675 0.633957 2.15824
lowerneck -21.1716 3.10639 4.98415
upperneck 19.3944 3.18229 -1.77661
head 9.75574 1.66251 -0.976083
rclavicle -9.01131e-015 -2.68359e-015
rhumerus 0 0 0
rradius 0
rwrist 0
rhand 0 0
rfingers 0
rthumb 0 0
lclavicle -9.01131e-015 -2.68359e-015
lhumerus -33.4834 -7.41933 92.6687
lradius 23.2979
lwrist -15.9554
lhand -12.7226 -25.6166
lfingers 7.12502
lthumb 13.3606 3.93506
rfemur 10.4268 -7.18355 8.36221
rtibia 0.845141
rfoot -17.6045 -11.0804
rtoes 13.2635
lfemur 11.7533 -2.30316 -18.1292
ltibia -4.0608
lfoot -11.5112 16.807
ltoes -5.91048
